<svg xmlns="http://www.w3.org/2000/svg" viewBox="0 0 100 100" width="512" height="512" role="img" aria-label="Malguem app icon (square)">
  <defs>
    <radialGradient id="bg" cx="50%" cy="46%" r="62%">
      <stop offset="0" stop-color="#342B16"></stop>
      <stop offset="0.78" stop-color="#14161C"></stop>
    </radialGradient>
  </defs>
  <rect x="0" y="0" width="100" height="100" fill="url(#bg)"></rect>
  <g transform="translate(18 18) scale(0.64)" fill="#FFC42E">
    <path d="M47.3 37 Q46.4 17 50 4 Q53.6 17 52.7 37 Z" transform="rotate(0 50 50)"></path>
    <path d="M47.8 37 Q47.3 26 50 19 Q52.7 26 52.2 37 Z" transform="rotate(24 50 50)"></path>
    <path d="M47.6 37 Q47 22 50 14 Q53 22 52.4 37 Z" transform="rotate(58 50 50)"></path>
    <path d="M47.4 37 Q46.6 19 50 8 Q53.4 19 52.6 37 Z" transform="rotate(88 50 50)"></path>
    <path d="M48 37 Q47.6 30 50 24 Q52.4 30 52 37 Z" transform="rotate(116 50 50)"></path>
    <path d="M47.6 37 Q47 22 50 14 Q53 22 52.4 37 Z" transform="rotate(150 50 50)"></path>
    <path d="M47.8 37 Q47.3 26 50 19 Q52.7 26 52.2 37 Z" transform="rotate(178 50 50)"></path>
    <path d="M47.3 37 Q46.4 17 50 4 Q53.6 17 52.7 37 Z" transform="rotate(208 50 50)"></path>
    <path d="M47.6 37 Q47 22 50 14 Q53 22 52.4 37 Z" transform="rotate(242 50 50)"></path>
    <path d="M48 37 Q47.6 30 50 24 Q52.4 30 52 37 Z" transform="rotate(268 50 50)"></path>
    <path d="M47.4 37 Q46.6 19 50 8 Q53.4 19 52.6 37 Z" transform="rotate(300 50 50)"></path>
    <path d="M47.6 37 Q47 22 50 14 Q53 22 52.4 37 Z" transform="rotate(334 50 50)"></path>
    <circle cx="50" cy="50" r="14"></circle>
  </g>
</svg>